<mxfile host="Electron" modified="2023-11-15T09:01:46.081Z" agent="Mozilla/5.0 (Windows NT 10.0; Win64; x64) AppleWebKit/537.36 (KHTML, like Gecko) draw.io/22.0.2 Chrome/114.0.5735.289 Electron/25.8.4 Safari/537.36" etag="NGOgHEtqb4WXYYwDS1gI" version="22.0.2" type="device">
  <diagram name="PÃ¡gina-1" id="ifp7t2unSX1TbrheViNg">
    <mxGraphModel dx="8455" dy="2415" grid="1" gridSize="10" guides="1" tooltips="1" connect="1" arrows="1" fold="1" page="1" pageScale="1" pageWidth="827" pageHeight="1169" math="0" shadow="0">
      <root>
        <mxCell id="0" />
        <mxCell id="1" parent="0" />
        <mxCell id="mVJnNVln7575e4MS3Hcu-1" value="&lt;font style=&quot;font-size: 48px;&quot;&gt;Main&lt;/font&gt;" style="rounded=0;whiteSpace=wrap;html=1;" vertex="1" parent="1">
          <mxGeometry x="430" y="420" width="490" height="120" as="geometry" />
        </mxCell>
        <mxCell id="mVJnNVln7575e4MS3Hcu-2" value="" style="endArrow=none;html=1;rounded=0;exitX=1;exitY=0.5;exitDx=0;exitDy=0;entryX=0;entryY=0.5;entryDx=0;entryDy=0;" edge="1" parent="1" source="mVJnNVln7575e4MS3Hcu-3" target="mVJnNVln7575e4MS3Hcu-1">
          <mxGeometry width="50" height="50" relative="1" as="geometry">
            <mxPoint x="-60" y="700" as="sourcePoint" />
            <mxPoint x="370" y="700.0000000000002" as="targetPoint" />
          </mxGeometry>
        </mxCell>
        <mxCell id="mVJnNVln7575e4MS3Hcu-3" value="&lt;font style=&quot;font-size: 48px;&quot;&gt;Development&lt;br&gt;&lt;/font&gt;" style="rounded=0;whiteSpace=wrap;html=1;" vertex="1" parent="1">
          <mxGeometry x="-590" y="430" width="490" height="120" as="geometry" />
        </mxCell>
        <mxCell id="mVJnNVln7575e4MS3Hcu-4" value="" style="endArrow=none;html=1;rounded=0;exitX=1;exitY=0.5;exitDx=0;exitDy=0;entryX=0;entryY=0.5;entryDx=0;entryDy=0;" edge="1" parent="1" source="mVJnNVln7575e4MS3Hcu-7" target="mVJnNVln7575e4MS3Hcu-3">
          <mxGeometry width="50" height="50" relative="1" as="geometry">
            <mxPoint x="-1400" y="490" as="sourcePoint" />
            <mxPoint x="-930" y="490" as="targetPoint" />
          </mxGeometry>
        </mxCell>
        <mxCell id="mVJnNVln7575e4MS3Hcu-7" value="&lt;font style=&quot;font-size: 48px;&quot;&gt;main_form&lt;br&gt;&lt;/font&gt;" style="rounded=0;whiteSpace=wrap;html=1;" vertex="1" parent="1">
          <mxGeometry x="-1550" y="460" width="490" height="120" as="geometry" />
        </mxCell>
        <mxCell id="mVJnNVln7575e4MS3Hcu-8" value="&lt;font style=&quot;font-size: 48px;&quot;&gt;MyaOrders_feature&lt;br&gt;&lt;/font&gt;" style="rounded=0;whiteSpace=wrap;html=1;" vertex="1" parent="1">
          <mxGeometry x="-1810" y="90" width="490" height="120" as="geometry" />
        </mxCell>
        <mxCell id="mVJnNVln7575e4MS3Hcu-9" value="" style="endArrow=none;html=1;rounded=0;exitX=0.5;exitY=1;exitDx=0;exitDy=0;entryX=0;entryY=0.5;entryDx=0;entryDy=0;" edge="1" parent="1" source="mVJnNVln7575e4MS3Hcu-8" target="mVJnNVln7575e4MS3Hcu-7">
          <mxGeometry width="50" height="50" relative="1" as="geometry">
            <mxPoint x="-1780" y="490" as="sourcePoint" />
            <mxPoint x="-1350" y="490" as="targetPoint" />
            <Array as="points" />
          </mxGeometry>
        </mxCell>
        <mxCell id="mVJnNVln7575e4MS3Hcu-11" style="edgeStyle=orthogonalEdgeStyle;rounded=0;orthogonalLoop=1;jettySize=auto;html=1;exitX=0.5;exitY=1;exitDx=0;exitDy=0;" edge="1" parent="1">
          <mxGeometry relative="1" as="geometry">
            <mxPoint x="-3575" y="390" as="sourcePoint" />
            <mxPoint x="-3575" y="390" as="targetPoint" />
          </mxGeometry>
        </mxCell>
      </root>
    </mxGraphModel>
  </diagram>
</mxfile>
